<svg id="Слой_1" data-name="Слой 1" xmlns="http://www.w3.org/2000/svg" viewBox="0 0 497.45 546.26"><defs><style>.cls-1{fill:#662d91;}.cls-2{fill:none;stroke:#662d91;stroke-linecap:round;stroke-miterlimit:10;stroke-width:30px;}</style></defs><path class="cls-1" d="M670.38,305.64c-27.16-15.15-106.21,63.19-88.12,106.07-9.94,52.85,125.15,325.48,350.87,423.38,0,0,108.51-6.23,112.6-99.35l-76.86-79.15s-67,9-66.46,53c-74.23-10.51-199.44-158.74-207-246.76,0,0,37.56-24.56,54.35-50.49C748.08,390.54,670.38,305.64,670.38,305.64Z" transform="translate(-579.6 -288.82)"/><path class="cls-2" d="M812.37,450s53.37,5.09,84.48,48.47S915,600.37,915,600.37" transform="translate(-579.6 -288.82)"/><path class="cls-2" d="M815,373.11s100.79,14.18,147.44,78S992,613.46,992,613.46" transform="translate(-579.6 -288.82)"/><path class="cls-2" d="M815.84,303.82S949,311.6,1017.11,404.65c71.85,98.23,36,220,36,220" transform="translate(-579.6 -288.82)"/></svg>